<svg version="1.1" xmlns="http://www.w3.org/2000/svg" viewBox="0 0 940.3400020599365 743.5" width="940.3400020599365" height="743.5">
  <!-- svg-source:excalidraw -->
  
  <defs>
    <style class="style-fonts">
      @font-face {
        font-family: "Virgil";
        src: url("https://excalidraw.com/Virgil.woff2");
      }
      @font-face {
        font-family: "Cascadia";
        src: url("https://excalidraw.com/Cascadia.woff2");
      }
      @font-face {
        font-family: "Assistant";
        src: url("https://excalidraw.com/Assistant-Regular.woff2");
      }
    </style>
    
  </defs>
  <rect x="0" y="0" width="940.3400020599365" height="743.5" fill="#ffffff"></rect><g stroke-opacity="0.5" fill-opacity="0.5" stroke-linecap="round" transform="translate(170 83) rotate(0 28 73)"><path d="M14 0 C19.85 -2.27, 25.6 -2.1, 42 0 C53.8 3.25, 52.54 4.16, 56 14 C52.58 50.34, 52.55 88.07, 56 132 C56.99 138.04, 53.26 144.42, 42 146 C27.76 147.7, 21.59 144.31, 14 146 C7.1 148.93, -1.07 140.84, 0 132 C0.52 104.93, -0.21 76.2, 0 14 C3.25 6.35, 1.19 2.77, 14 0" stroke="none" stroke-width="0" fill="#ffec99"></path><path d="M14 0 C24.82 1.43, 35.65 -0.76, 42 0 M14 0 C19.74 0.55, 28.08 0.79, 42 0 M42 0 C49.36 0.77, 57.78 3.71, 56 14 M42 0 C51.33 2.27, 54.63 6.95, 56 14 M56 14 C53.05 38.04, 56.74 62.97, 56 132 M56 14 C56.28 44.85, 56.84 76.88, 56 132 M56 132 C54.6 141.54, 49.68 144.92, 42 146 M56 132 C55.86 139.05, 49.31 147.41, 42 146 M42 146 C33.39 147.39, 20.19 147.71, 14 146 M42 146 C30.18 145.59, 19.56 146.45, 14 146 M14 146 C6.6 145.76, 1.32 143.24, 0 132 M14 146 C2.61 147.36, 0.27 141.28, 0 132 M0 132 C-2.63 91.92, -2.52 48.43, 0 14 M0 132 C0.6 91.71, 0.83 49.2, 0 14 M0 14 C1.76 3.79, 6.15 -0.88, 14 0 M0 14 C1.58 5.2, 3.89 1.65, 14 0" stroke="#1e1e1e" stroke-width="2" fill="none"></path></g><g stroke-opacity="0.4" fill-opacity="0.4" stroke-linecap="round" transform="translate(226 84) rotate(0 92.5 73.5)"><path d="M32 0 C80.89 -3.04, 127.33 -1.6, 153 0 C176.44 2.41, 182.71 8.27, 185 32 C180.65 60.39, 184.22 90.1, 185 115 C182.39 139.6, 175.92 149.19, 153 147 C107.08 143.8, 57.09 142.05, 32 147 C10.26 143.63, -3.47 136.49, 0 115 C2.15 80.91, 1.28 45.75, 0 32 C0.12 12.43, 8.28 3.11, 32 0" stroke="none" stroke-width="0" fill="#a5d8ff"></path><path d="M32 0 C68.51 1.08, 104.82 -0.69, 153 0 M32 0 C75.17 -0.8, 118.42 0.03, 153 0 M153 0 C172.85 -1.04, 185.53 9.68, 185 32 M153 0 C172.85 1.05, 187.22 8.44, 185 32 M185 32 C184.41 49.61, 183.79 71.22, 185 115 M185 32 C184.4 58.45, 184.71 87.15, 185 115 M185 115 C183.87 137.81, 174.79 146.01, 153 147 M185 115 C185.76 136.89, 174.35 146.93, 153 147 M153 147 C126.85 148.54, 97.54 148.11, 32 147 M153 147 C108.69 148.5, 63.93 148.37, 32 147 M32 147 C10.71 148.59, 1.51 137.18, 0 115 M32 147 C8.99 146.72, 0.67 137.16, 0 115 M0 115 C-1.52 94.68, 1.3 75.53, 0 32 M0 115 C0.82 94.11, 1.1 74.43, 0 32 M0 32 C1.42 10.91, 11 0.25, 32 0 M0 32 C-1.56 10.47, 8.41 -0.69, 32 0" stroke="#1e1e1e" stroke-width="2" fill="none"></path></g><g stroke-opacity="0.5" fill-opacity="0.5" stroke-linecap="round" transform="translate(523.5 88) rotate(0 28 73)"><path d="M14 0 C19.75 -3.73, 23.12 -3.56, 42 0 C52.93 0.06, 55.65 6.18, 56 14 C56.45 51.21, 53.54 90.26, 56 132 C54.05 143.02, 54.21 148.65, 42 146 C35.78 146.7, 31.66 146.83, 14 146 C3.03 148.63, -0.33 144.08, 0 132 C1.72 102.98, 1.27 68.3, 0 14 C1.41 1.46, 1.24 2.68, 14 0" stroke="none" stroke-width="0" fill="#ffec99"></path><path d="M14 0 C24.78 -1.16, 32.93 0.72, 42 0 M14 0 C23.71 -0.62, 34.98 -0.6, 42 0 M42 0 C52.46 -1.17, 56.09 3.62, 56 14 M42 0 C53.41 -0.74, 54.97 5.54, 56 14 M56 14 C55.07 54.94, 57.81 95.55, 56 132 M56 14 C56.08 43.71, 55.92 75.85, 56 132 M56 132 C56.48 142.37, 51.79 146.56, 42 146 M56 132 C53.79 143.07, 52.55 148.25, 42 146 M42 146 C31.78 147.97, 25.64 145.95, 14 146 M42 146 C31.05 146.03, 20.92 145.66, 14 146 M14 146 C4.36 146.93, 1.51 141.98, 0 132 M14 146 C2.65 148.29, 0.25 140.91, 0 132 M0 132 C1.82 84.97, 1.08 40.44, 0 14 M0 132 C1.16 94.72, 1.35 56.22, 0 14 M0 14 C-0.44 4.81, 3.77 -1.71, 14 0 M0 14 C-0.25 4.34, 4.89 1.17, 14 0" stroke="#1e1e1e" stroke-width="2" fill="none"></path></g><g stroke-opacity="0.4" fill-opacity="0.4" stroke-linecap="round" transform="translate(579.5 89) rotate(0 92.5 73.5)"><path d="M32 0 C75.25 -1.15, 124.74 2.08, 153 0 C173.99 1.52, 185.54 7.51, 185 32 C185.36 61.21, 184.01 88.23, 185 115 C187.88 138.99, 171.6 148.77, 153 147 C108.36 147.54, 57.65 149.79, 32 147 C10.33 149.75, -1.62 135.26, 0 115 C0.19 78.39, 0.95 45.56, 0 32 C-3.43 13.35, 10.28 -2.38, 32 0" stroke="none" stroke-width="0" fill="#a5d8ff"></path><path d="M32 0 C66.03 1.4, 99.17 -0.17, 153 0 M32 0 C75.89 0.12, 119.47 -0.03, 153 0 M153 0 C174.42 -1.05, 186.81 10.02, 185 32 M153 0 C173.3 0.87, 185.86 11.33, 185 32 M185 32 C185.95 61.65, 183.64 87, 185 115 M185 32 C185.37 50.03, 185.48 66.84, 185 115 M185 115 C185.46 136.89, 172.41 148.51, 153 147 M185 115 C186.22 138.58, 174.51 145.32, 153 147 M153 147 C115.63 148.07, 77.94 149.16, 32 147 M153 147 C108.21 146.28, 63.89 147.28, 32 147 M32 147 C12.18 147.65, -1.75 138.33, 0 115 M32 147 C10.92 146.58, 2.09 134.95, 0 115 M0 115 C-0.09 96.07, -0.07 73.92, 0 32 M0 115 C0.2 94.68, -0.28 75.08, 0 32 M0 32 C-0.9 8.96, 10.45 -0.29, 32 0 M0 32 C0.22 11.83, 8.46 -0.8, 32 0" stroke="#1e1e1e" stroke-width="2" fill="none"></path></g><g stroke-opacity="0.5" fill-opacity="0.5" stroke-linecap="round" transform="translate(398 141) rotate(0 15.5 12.5)"><path d="M6.25 0 C13.78 0.69, 20.34 -0.69, 24.75 0 C31.32 -3.14, 32.06 2.76, 31 6.25 C32.52 8.48, 31.62 15.44, 31 18.75 C31.4 19.43, 32.28 23.57, 24.75 25 C16.97 21.99, 16.17 27.3, 6.25 25 C5.18 22.61, 2.24 20.87, 0 18.75 C-0.66 14.06, 1.34 9.08, 0 6.25 C1.99 3.95, 3.86 1.32, 6.25 0" stroke="none" stroke-width="0" fill="#ffffff"></path><path d="M6.25 0 C13.28 0.76, 19.53 1.45, 24.75 0 M6.25 0 C13.12 -0.21, 20.7 -0.61, 24.75 0 M24.75 0 C28.96 -0.78, 31.35 2.22, 31 6.25 M24.75 0 C30.26 -1.7, 31.08 4.09, 31 6.25 M31 6.25 C31.1 9.57, 30.54 12.17, 31 18.75 M31 6.25 C30.75 10.66, 31.37 14.98, 31 18.75 M31 18.75 C32.2 24.53, 29.02 24.19, 24.75 25 M31 18.75 C30.53 23.71, 27.41 26.43, 24.75 25 M24.75 25 C19.55 25.04, 11.96 25.12, 6.25 25 M24.75 25 C20.15 25.49, 15.52 25.96, 6.25 25 M6.25 25 C1.05 26.19, 1.13 21.48, 0 18.75 M6.25 25 C2.65 22.9, -0.85 23.15, 0 18.75 M0 18.75 C1.01 15.21, -0.06 12.89, 0 6.25 M0 18.75 C-0.05 14.6, -0.39 11.56, 0 6.25 M0 6.25 C-1.67 2.17, 3.57 0.8, 6.25 0 M0 6.25 C-0.44 0.13, 4.11 1.35, 6.25 0" stroke="#1e1e1e" stroke-width="2" fill="none"></path></g><g stroke-opacity="0.5" fill-opacity="0.5" stroke-linecap="round" transform="translate(504.5 140.5) rotate(0 15.5 12.5)"><path d="M6.25 0 C11.06 2.04, 15.43 1.94, 24.75 0 C30.79 1.78, 32.32 1.3, 31 6.25 C33.17 9.85, 31.6 14.71, 31 18.75 C31.07 22.27, 25.61 24.98, 24.75 25 C21.92 27.21, 14.04 22.64, 6.25 25 C2.72 22.01, 1.01 23.1, 0 18.75 C-2.03 14.8, 0.74 14.58, 0 6.25 C3.59 1.21, -1.38 -1.04, 6.25 0" stroke="none" stroke-width="0" fill="#1971c2"></path><path d="M6.25 0 C14.54 -0.01, 19.09 -0.49, 24.75 0 M6.25 0 C12.98 -0.15, 18.94 0.6, 24.75 0 M24.75 0 C28.89 0.52, 31.06 0.67, 31 6.25 M24.75 0 C28.27 0.84, 30.11 3.13, 31 6.25 M31 6.25 C31.86 9.7, 30.22 12.06, 31 18.75 M31 6.25 C30.77 8.46, 31.54 11.93, 31 18.75 M31 18.75 C30.75 22.69, 30.36 25.16, 24.75 25 M31 18.75 C30.9 21.04, 28.72 23.91, 24.75 25 M24.75 25 C20.44 26.22, 16.7 24.49, 6.25 25 M24.75 25 C21.6 25.02, 16.62 25.2, 6.25 25 M6.25 25 C2.46 24.8, -0.45 24.25, 0 18.75 M6.25 25 C0.08 25.68, 0.43 23.17, 0 18.75 M0 18.75 C-1.02 15.52, 0.69 11.7, 0 6.25 M0 18.75 C-0.43 15.8, -0.07 13.08, 0 6.25 M0 6.25 C-1.82 2.48, 3.45 1.72, 6.25 0 M0 6.25 C-1.53 3.51, 0.78 1.07, 6.25 0" stroke="#1e1e1e" stroke-width="2" fill="none"></path></g><g stroke-linecap="round"><g transform="translate(432 153.8609037695033) rotate(0 34.5 0.1557039012153325)"><path d="M0.6 0.62 C12.13 0.76, 58.28 -0.12, 69.73 -0.21 M-0.55 -0.1 C10.84 0.29, 57.62 0.82, 69.16 1.06" stroke="#1e1e1e" stroke-width="2" fill="none"></path></g><g transform="translate(432 153.8609037695033) rotate(0 34.5 0.1557039012153325)"><path d="M45.54 9.24 C54.78 7.52, 61.02 4.02, 69.16 1.06 M45.54 9.24 C52.8 6.76, 59.1 4.96, 69.16 1.06" stroke="#1e1e1e" stroke-width="2" fill="none"></path></g><g transform="translate(432 153.8609037695033) rotate(0 34.5 0.1557039012153325)"><path d="M45.81 -7.86 C54.81 -3.69, 60.96 -1.3, 69.16 1.06 M45.81 -7.86 C52.87 -5.5, 59.09 -2.46, 69.16 1.06" stroke="#1e1e1e" stroke-width="2" fill="none"></path></g></g><mask></mask><g stroke-opacity="0.5" fill-opacity="0.5" transform="translate(165 62.5) rotate(0 32.54399871826172 10)"><text x="0" y="14.016" font-family="Virgil, Segoe UI Emoji" font-size="16px" fill="#1e1e1e" text-anchor="start" style="white-space: pre;" direction="ltr" dominant-baseline="alphabetic">receptor</text></g><g stroke-opacity="0.5" fill-opacity="0.5" transform="translate(516.4560012817383 65) rotate(0 32.54399871826172 10)"><text x="0" y="14.016" font-family="Virgil, Segoe UI Emoji" font-size="16px" fill="#1e1e1e" text-anchor="start" style="white-space: pre;" direction="ltr" dominant-baseline="alphabetic">receptor</text></g><g stroke-opacity="0.5" fill-opacity="0.5" transform="translate(278.4560012817383 61) rotate(0 28.13599967956543 10)"><text x="0" y="14.016" font-family="Virgil, Segoe UI Emoji" font-size="16px" fill="#1e1e1e" text-anchor="start" style="white-space: pre;" direction="ltr" dominant-baseline="alphabetic">actions</text></g><g stroke-opacity="0.5" fill-opacity="0.5" transform="translate(642.8640003204346 67) rotate(0 28.13599967956543 10)"><text x="0" y="14.016" font-family="Virgil, Segoe UI Emoji" font-size="16px" fill="#1e1e1e" text-anchor="start" style="white-space: pre;" direction="ltr" dominant-baseline="alphabetic">actions</text></g><g stroke-opacity="0.5" fill-opacity="0.5" stroke-linecap="round" transform="translate(749.5 142.5) rotate(0 15.5 12.5)"><path d="M6.25 0 C14.07 0.62, 19.86 -1.78, 24.75 0 C26.07 1.85, 30.53 2.48, 31 6.25 C31.32 9.34, 30.67 14.22, 31 18.75 C29.41 25.65, 30.61 22.76, 24.75 25 C20.42 26.69, 15.18 26.84, 6.25 25 C1.93 24.25, -0.86 23.17, 0 18.75 C-1.24 15.53, -2.06 11.35, 0 6.25 C-1.21 0.78, 2.83 0.88, 6.25 0" stroke="none" stroke-width="0" fill="#ffffff"></path><path d="M6.25 0 C13.66 1.18, 18.17 -0.85, 24.75 0 M6.25 0 C12.16 -0.03, 20.74 0.55, 24.75 0 M24.75 0 C30.37 1.53, 32.42 1.33, 31 6.25 M24.75 0 C30.99 -1.37, 33.08 1.06, 31 6.25 M31 6.25 C30.96 10.84, 32.29 15.61, 31 18.75 M31 6.25 C31.39 10.12, 31.47 14.96, 31 18.75 M31 18.75 C30.46 24.19, 29.77 26.12, 24.75 25 M31 18.75 C29.16 22.41, 26.7 23.86, 24.75 25 M24.75 25 C18.74 25.32, 14.24 23.37, 6.25 25 M24.75 25 C18.64 24.75, 13.99 24.46, 6.25 25 M6.25 25 C2.69 23.38, 1.67 22.89, 0 18.75 M6.25 25 C1.48 22.9, 0.05 21.31, 0 18.75 M0 18.75 C-0.25 14.05, 0.04 11.84, 0 6.25 M0 18.75 C-0.32 15.79, 0.68 12.8, 0 6.25 M0 6.25 C0.08 0.5, 0.51 0.05, 6.25 0 M0 6.25 C-0.72 2.21, 2.44 1.31, 6.25 0" stroke="#1e1e1e" stroke-width="2" fill="none"></path></g><g stroke-opacity="0.5" fill-opacity="0.5" stroke-linecap="round" transform="translate(152.5 136.5) rotate(0 15.5 12.5)"><path d="M6.25 0 C11.07 -1.14, 18.11 1.71, 24.75 0 C27.21 0.07, 27.66 3.61, 31 6.25 C32.63 9.63, 31.38 13.56, 31 18.75 C30.31 19.53, 28.84 27.4, 24.75 25 C15.25 25.91, 11.61 23.74, 6.25 25 C-0.22 24.86, -0.12 25.5, 0 18.75 C-0.69 16, -0.89 14.2, 0 6.25 C-2.04 3.12, 2.9 -0.49, 6.25 0" stroke="none" stroke-width="0" fill="#1971c2"></path><path d="M6.25 0 C13.67 -1.48, 19.31 1.3, 24.75 0 M6.25 0 C10.27 0.86, 16.32 0.44, 24.75 0 M24.75 0 C29.23 0.6, 30.46 0.28, 31 6.25 M24.75 0 C31.17 0.14, 28.81 0.69, 31 6.25 M31 6.25 C31.62 8.27, 31.18 11.4, 31 18.75 M31 6.25 C30.95 11.35, 30.53 15.08, 31 18.75 M31 18.75 C29.17 21.98, 30.77 23.28, 24.75 25 M31 18.75 C31.59 22.89, 28.25 23.61, 24.75 25 M24.75 25 C19.47 26.48, 12.47 25.34, 6.25 25 M24.75 25 C20.59 25.6, 16.33 24.74, 6.25 25 M6.25 25 C0.15 24.91, 0.78 24.72, 0 18.75 M6.25 25 C1.13 24.6, -0.94 22.52, 0 18.75 M0 18.75 C0.94 16.55, 0.04 12.87, 0 6.25 M0 18.75 C0.49 14.79, -0.07 11.61, 0 6.25 M0 6.25 C0.91 0.69, 1.84 -0.91, 6.25 0 M0 6.25 C0.74 2.97, 4.18 0.83, 6.25 0" stroke="#1e1e1e" stroke-width="2" fill="none"></path></g><g stroke-linecap="round"><g transform="translate(785 157) rotate(0 37 -0.5)"><path d="M-0.77 0.24 C11.71 0.13, 61.83 -0.37, 74.12 -0.5 M1.02 -0.67 C13.42 -1.16, 60.85 -2.03, 73.24 -2.36" stroke="#1e1e1e" stroke-width="2" fill="none"></path></g><g transform="translate(785 157) rotate(0 37 -0.5)"><path d="M49.94 6.71 C55.86 4.91, 61.81 0.89, 73.24 -2.36 M49.94 6.71 C57.36 4.72, 66.49 0.31, 73.24 -2.36" stroke="#1e1e1e" stroke-width="2" fill="none"></path></g><g transform="translate(785 157) rotate(0 37 -0.5)"><path d="M49.56 -10.39 C55.59 -8.13, 61.63 -8.1, 73.24 -2.36 M49.56 -10.39 C57.14 -6.59, 66.39 -5.23, 73.24 -2.36" stroke="#1e1e1e" stroke-width="2" fill="none"></path></g></g><mask></mask><g stroke-linecap="round"><g transform="translate(782.325802829489 157.05860074135467) rotate(0 37 -0.5)"><path d="M-0.35 0.55 C12.02 0.57, 60.5 0.05, 73.01 -0.4 M1.67 -0.21 C14.5 -0.49, 63.1 -2.01, 75.21 -2.2" stroke="#1e1e1e" stroke-width="2" fill="none"></path></g><g transform="translate(782.325802829489 157.05860074135467) rotate(0 37 -0.5)"><path d="M51.94 6.92 C57.56 3.52, 62.32 4.54, 75.21 -2.2 M51.94 6.92 C56.52 5.36, 61.69 2.75, 75.21 -2.2" stroke="#1e1e1e" stroke-width="2" fill="none"></path></g><g transform="translate(782.325802829489 157.05860074135467) rotate(0 37 -0.5)"><path d="M51.51 -10.17 C57.15 -10.15, 61.99 -5.69, 75.21 -2.2 M51.51 -10.17 C56.03 -8.2, 61.29 -7.28, 75.21 -2.2" stroke="#1e1e1e" stroke-width="2" fill="none"></path></g></g><mask></mask><g stroke-linecap="round"><g transform="translate(76.32580282948913 149.05860074135467) rotate(0 37 -0.5)"><path d="M-1.12 -1.06 C11.12 -1.41, 61.45 -1.39, 74.03 -1.37 M0.49 1 C12.52 0.76, 60.88 0.07, 73.1 -0.03" stroke="#1e1e1e" stroke-width="2" fill="none"></path></g><g transform="translate(76.32580282948913 149.05860074135467) rotate(0 37 -0.5)"><path d="M49.71 8.8 C56.09 5.98, 65.42 3.5, 73.1 -0.03 M49.71 8.8 C57.6 5.21, 63.43 2.73, 73.1 -0.03" stroke="#1e1e1e" stroke-width="2" fill="none"></path></g><g transform="translate(76.32580282948913 149.05860074135467) rotate(0 37 -0.5)"><path d="M49.51 -8.3 C56.06 -5.13, 65.47 -1.62, 73.1 -0.03 M49.51 -8.3 C57.39 -6.67, 63.29 -3.94, 73.1 -0.03" stroke="#1e1e1e" stroke-width="2" fill="none"></path></g></g><mask></mask><g transform="translate(10 135) rotate(0 28.340002059936523 12.5)"><text x="0" y="17.52" font-family="Virgil, Segoe UI Emoji" font-size="20px" fill="#e03131" text-anchor="start" style="white-space: pre;" direction="ltr" dominant-baseline="alphabetic">"Hello"</text></g><g transform="translate(439.6599979400635 107.5) rotate(0 28.340002059936523 12.5)"><text x="0" y="17.52" font-family="Virgil, Segoe UI Emoji" font-size="20px" fill="#e03131" text-anchor="start" style="white-space: pre;" direction="ltr" dominant-baseline="alphabetic">"Hello"</text></g><g transform="translate(873.6599979400635 144.5) rotate(0 28.340002059936523 12.5)"><text x="0" y="17.52" font-family="Virgil, Segoe UI Emoji" font-size="20px" fill="#e03131" text-anchor="start" style="white-space: pre;" direction="ltr" dominant-baseline="alphabetic">"Hello"</text></g><g stroke-opacity="0.5" fill-opacity="0.5" stroke-linecap="round" transform="translate(344.83626119662085 399.5) rotate(0 28 73)"><path d="M14 0 C21.9 2.55, 30.24 0.15, 42 0 C50.39 2.18, 55.27 1.26, 56 14 C55.92 46.41, 52.34 80.18, 56 132 C58.03 138.33, 51.66 143.52, 42 146 C33.5 142.22, 28.95 146.46, 14 146 C5.72 149.44, 0.31 140.31, 0 132 C-2.24 100.51, -1.53 60.63, 0 14 C-0.13 7.82, 5.63 0.67, 14 0" stroke="none" stroke-width="0" fill="#ffec99"></path><path d="M14 0 C23.69 1.61, 30.23 -0.23, 42 0 M14 0 C23.57 0.42, 35.51 -0.12, 42 0 M42 0 C50.25 -1.33, 55.72 5.46, 56 14 M42 0 C52.37 2.28, 54.49 3.07, 56 14 M56 14 C55.91 51.81, 54.34 85.05, 56 132 M56 14 C58.01 54.08, 56.19 93.79, 56 132 M56 132 C55.05 143.26, 51.95 144.58, 42 146 M56 132 C57.25 140.76, 50.43 146.89, 42 146 M42 146 C35.28 146.75, 24.68 144.9, 14 146 M42 146 C35.37 146.3, 29.71 144.99, 14 146 M14 146 C3.14 145.98, 1.01 140.48, 0 132 M14 146 C3.8 147.09, -2.14 141.86, 0 132 M0 132 C0.07 85.09, -0.89 40.45, 0 14 M0 132 C0.31 94.51, 0.95 57.56, 0 14 M0 14 C0.26 3.02, 6.34 0.82, 14 0 M0 14 C0.42 4.53, 6.09 -1.26, 14 0" stroke="#1e1e1e" stroke-width="2" fill="none"></path></g><g stroke-opacity="0.4" fill-opacity="0.4" stroke-linecap="round" transform="translate(400.83626119662085 400.5) rotate(0 92.5 73.5)"><path d="M32 0 C59.92 -1.56, 83.48 0.89, 153 0 C173.61 -3.41, 184.4 8.03, 185 32 C183.51 50.17, 187.64 66.78, 185 115 C185.32 133.85, 173.52 145.3, 153 147 C124.84 145.54, 92.74 148.3, 32 147 C10.97 145.97, -0.45 139.85, 0 115 C0.62 89.19, -0.06 73.5, 0 32 C0.96 11.33, 7.09 -1.12, 32 0" stroke="none" stroke-width="0" fill="#a5d8ff"></path><path d="M32 0 C64.84 -1.24, 99.78 -2.84, 153 0 M32 0 C57.61 -0.56, 80.76 -0.84, 153 0 M153 0 C174.06 0.8, 185.9 12.65, 185 32 M153 0 C172.82 -1.6, 185.16 9.36, 185 32 M185 32 C184.25 56.97, 185.94 86.39, 185 115 M185 32 C184.98 54.44, 185.34 76.41, 185 115 M185 115 C185.62 134.91, 175.42 146.5, 153 147 M185 115 C184.09 137.22, 173.93 147.24, 153 147 M153 147 C114.28 146.32, 76.67 146.16, 32 147 M153 147 C122.14 146.67, 92.1 147.52, 32 147 M32 147 C11.68 146.14, -0.75 137.28, 0 115 M32 147 C8.52 147.53, 1.87 134.54, 0 115 M0 115 C-1.46 81.06, 0.61 48.77, 0 32 M0 115 C0.54 93.56, 0.62 72.39, 0 32 M0 32 C1.67 11.49, 11.04 -0.12, 32 0 M0 32 C1.43 9.4, 9.74 1.04, 32 0" stroke="#1e1e1e" stroke-width="2" fill="none"></path></g><g stroke-opacity="0.5" fill-opacity="0.5" stroke-linecap="round" transform="translate(345.33626119662085 585.5) rotate(0 28 73)"><path d="M14 0 C23.11 2.21, 33.39 -3.37, 42 0 C50.74 -2.64, 53.39 6.15, 56 14 C56.79 43.01, 55.08 75.55, 56 132 C55.19 139.64, 49.65 145.27, 42 146 C37.41 149.54, 31.02 145.07, 14 146 C4.22 149.51, -1.12 141.17, 0 132 C-0.45 91.74, 0.64 45.83, 0 14 C-3.58 3.54, 7.56 2.77, 14 0" stroke="none" stroke-width="0" fill="#ffec99"></path><path d="M14 0 C25.9 -1.87, 33.19 -1.38, 42 0 M14 0 C22.27 -0.56, 31.48 0.51, 42 0 M42 0 C52.24 1.99, 54.69 3.28, 56 14 M42 0 C51.49 -1.31, 56.39 5.33, 56 14 M56 14 C56.12 60.65, 54.65 105.78, 56 132 M56 14 C54.54 56.77, 55.33 96.91, 56 132 M56 132 C57.09 140.84, 50.55 146.77, 42 146 M56 132 C55.6 141.57, 51.51 147.37, 42 146 M42 146 C30.68 144.56, 22.12 144.08, 14 146 M42 146 C31.6 145.75, 23.24 145.33, 14 146 M14 146 C3.91 146.95, -1.86 141.79, 0 132 M14 146 C6.53 144.2, 2.07 140.36, 0 132 M0 132 C1.33 106.43, 0.1 82.73, 0 14 M0 132 C0.07 102.14, 0.77 74.34, 0 14 M0 14 C0.37 4.54, 5.91 -1.1, 14 0 M0 14 C-0.93 5.71, 2.75 0.4, 14 0" stroke="#1e1e1e" stroke-width="2" fill="none"></path></g><g stroke-opacity="0.4" fill-opacity="0.4" stroke-linecap="round" transform="translate(401.33626119662085 586.5) rotate(0 92.5 73.5)"><path d="M32 0 C66.66 -4.73, 102.18 -3.96, 153 0 C171.73 1.48, 183.97 8.56, 185 32 C186.16 52.76, 185.03 76.79, 185 115 C183.32 135.6, 170.79 149.49, 153 147 C114.69 148.06, 75.31 152.6, 32 147 C9.55 146.83, 2.45 136.88, 0 115 C1.01 98.8, -3.52 80.14, 0 32 C2.89 13.44, 9.01 1.38, 32 0" stroke="none" stroke-width="0" fill="#a5d8ff"></path><path d="M32 0 C64.53 -0.27, 101.21 3.06, 153 0 M32 0 C63.48 1.2, 95.68 1.8, 153 0 M153 0 C173.02 -1.39, 185.14 9.53, 185 32 M153 0 C174.73 0.66, 186.85 9.53, 185 32 M185 32 C184.53 53.25, 186.38 68.91, 185 115 M185 32 C184.91 62.1, 185.15 93.38, 185 115 M185 115 C184.21 137.11, 173.99 147.21, 153 147 M185 115 C185.17 137.7, 175.18 145.28, 153 147 M153 147 C122.46 144.46, 94.87 144.64, 32 147 M153 147 C127.71 146.56, 101.03 147.46, 32 147 M32 147 C8.8 147.46, 1.62 134.77, 0 115 M32 147 C12.73 146.02, -2.21 134.25, 0 115 M0 115 C-1.07 95.5, -1.19 78.46, 0 32 M0 115 C0.73 95.05, 0.08 74.22, 0 32 M0 32 C1.24 9.57, 9.86 0.91, 32 0 M0 32 C-1.92 11.07, 12.03 1.09, 32 0" stroke="#1e1e1e" stroke-width="2" fill="none"></path></g><g stroke-opacity="0.5" fill-opacity="0.5" stroke-linecap="round" transform="translate(572.8362611966209 457.5) rotate(0 15.5 12.5)"><path d="M6.25 0 C12.37 -2.13, 17.18 1.69, 24.75 0 C27.88 -2.1, 30.28 4.11, 31 6.25 C30.51 7.9, 29.97 11.21, 31 18.75 C27.45 25.41, 29.61 26.05, 24.75 25 C17.02 28.16, 9.08 24.75, 6.25 25 C4.53 25.55, -3.48 22.79, 0 18.75 C-2.3 13.2, 1.75 10.79, 0 6.25 C-1.66 3.47, 1.91 3.43, 6.25 0" stroke="none" stroke-width="0" fill="#ffffff"></path><path d="M6.25 0 C10.3 1.89, 13.1 -0.87, 24.75 0 M6.25 0 C10.99 0.84, 14.28 -0.72, 24.75 0 M24.75 0 C29.05 -1.13, 31.34 2.66, 31 6.25 M24.75 0 C30.77 -1.13, 29.44 2.89, 31 6.25 M31 6.25 C31.63 10.05, 31.84 15.33, 31 18.75 M31 6.25 C31.38 11.05, 30.79 16.4, 31 18.75 M31 18.75 C30.65 23.12, 29.07 26.19, 24.75 25 M31 18.75 C31.84 21.2, 27.63 22.82, 24.75 25 M24.75 25 C21.2 23.37, 14.41 23.42, 6.25 25 M24.75 25 C18.87 25.36, 12.83 25.13, 6.25 25 M6.25 25 C3.71 23.44, 1.8 22.07, 0 18.75 M6.25 25 C-0.13 22.92, -1.82 23.22, 0 18.75 M0 18.75 C-0.61 16.02, -0.62 13.32, 0 6.25 M0 18.75 C0.01 15.99, 0.28 12.96, 0 6.25 M0 6.25 C-0.81 2.99, 0.42 0.35, 6.25 0 M0 6.25 C1.36 3.17, 1.91 -0.61, 6.25 0" stroke="#1e1e1e" stroke-width="2" fill="none"></path></g><g stroke-opacity="0.5" fill-opacity="0.5" stroke-linecap="round" transform="translate(326.33626119662085 638) rotate(0 15.5 12.5)"><path d="M6.25 0 C7.64 1.61, 12.89 -1.7, 24.75 0 C28.2 2.03, 27.99 2.41, 31 6.25 C29.9 8.68, 28.73 13.58, 31 18.75 C31.69 23.97, 32.36 25.31, 24.75 25 C18.7 25.17, 16.97 25.83, 6.25 25 C-1.4 24.87, 3.15 23.88, 0 18.75 C2.03 16.5, -0.81 11.65, 0 6.25 C-0.17 5.52, 2.91 -2.59, 6.25 0" stroke="none" stroke-width="0" fill="#1971c2"></path><path d="M6.25 0 C9.77 -1.18, 13.48 -0.43, 24.75 0 M6.25 0 C11.93 -0.83, 18.89 -0.71, 24.75 0 M24.75 0 C29.26 0.58, 32.61 1.1, 31 6.25 M24.75 0 C27.36 0.81, 33 1.2, 31 6.25 M31 6.25 C31.96 10.63, 32.27 16.59, 31 18.75 M31 6.25 C30.82 9.35, 30.96 12.03, 31 18.75 M31 18.75 C31.15 24.11, 29.65 23.5, 24.75 25 M31 18.75 C29.71 20.74, 27.44 23.82, 24.75 25 M24.75 25 C19.23 23.44, 16.9 25.79, 6.25 25 M24.75 25 C19.13 25.3, 15.99 24.36, 6.25 25 M6.25 25 C3.88 24.15, -1.92 21.1, 0 18.75 M6.25 25 C0.26 25.3, -1.75 21.81, 0 18.75 M0 18.75 C-0.62 15.9, -0.96 13.76, 0 6.25 M0 18.75 C0.36 14.14, -0.28 10.51, 0 6.25 M0 6.25 C-1.67 2.43, 3.27 0.95, 6.25 0 M0 6.25 C-0.17 1.48, 3.47 -0.46, 6.25 0" stroke="#1e1e1e" stroke-width="2" fill="none"></path></g><g stroke-opacity="0.5" fill-opacity="0.5" stroke-linecap="round" transform="translate(571.3362611966209 640) rotate(0 15.5 12.5)"><path d="M6.25 0 C10.71 -3.13, 18.82 0.79, 24.75 0 C29.97 3.44, 31.31 1.06, 31 6.25 C31.12 11.37, 31.56 11.26, 31 18.75 C30.87 26.07, 29.88 25.67, 24.75 25 C23.6 23.74, 18.61 25.11, 6.25 25 C5.52 25.83, -2.59 21.49, 0 18.75 C0.58 13.36, -0.76 10.51, 0 6.25 C1.8 1.98, 1.86 -3.5, 6.25 0" stroke="none" stroke-width="0" fill="#ffffff"></path><path d="M6.25 0 C12.46 1.46, 16.69 -1.28, 24.75 0 M6.25 0 C13.36 0.57, 17.88 0.73, 24.75 0 M24.75 0 C27.96 1.92, 31.62 0.66, 31 6.25 M24.75 0 C30.17 -0.57, 30.09 2.97, 31 6.25 M31 6.25 C31.76 10.24, 30.08 12.61, 31 18.75 M31 6.25 C30.37 9.09, 30.42 10.84, 31 18.75 M31 18.75 C29.47 22.89, 29.93 24.14, 24.75 25 M31 18.75 C30.13 24.01, 26.77 25.53, 24.75 25 M24.75 25 C16.91 23.39, 8.97 23.7, 6.25 25 M24.75 25 C18.41 24.41, 13.22 24.4, 6.25 25 M6.25 25 C2.35 23.35, 1.67 23.74, 0 18.75 M6.25 25 C2.51 24.86, 1.43 21.65, 0 18.75 M0 18.75 C0.16 16.25, 0.53 12.17, 0 6.25 M0 18.75 C-0.67 15.23, -0.53 11.46, 0 6.25 M0 6.25 C0.82 1.51, 0.91 -0.4, 6.25 0 M0 6.25 C1.3 0.16, 2.29 -1.58, 6.25 0" stroke="#1e1e1e" stroke-width="2" fill="none"></path></g><g stroke-opacity="0.5" fill-opacity="0.5" stroke-linecap="round" transform="translate(327.33626119662085 453) rotate(0 15.5 12.5)"><path d="M6.25 0 C13.24 0.97, 16.59 3.51, 24.75 0 C29.22 -1.03, 30.55 5.6, 31 6.25 C31.33 7.44, 30.91 14.95, 31 18.75 C31.96 23.58, 25.34 23.88, 24.75 25 C18.99 24.69, 13.85 25.61, 6.25 25 C-0.51 23.58, 1.62 26.32, 0 18.75 C-0.63 14.46, 1.04 9.34, 0 6.25 C-0.22 -1.42, -1.37 0.57, 6.25 0" stroke="none" stroke-width="0" fill="#1971c2"></path><path d="M6.25 0 C11.2 -1.4, 18.63 1.46, 24.75 0 M6.25 0 C10.32 0.56, 15.49 0.79, 24.75 0 M24.75 0 C29.53 -1.42, 32.09 1.59, 31 6.25 M24.75 0 C28.01 0.89, 30.6 2.32, 31 6.25 M31 6.25 C30.14 9.39, 29.89 13.14, 31 18.75 M31 6.25 C30.39 8.81, 30.41 12.46, 31 18.75 M31 18.75 C32.01 22.06, 28.16 25.95, 24.75 25 M31 18.75 C28.86 23.44, 30.78 23.2, 24.75 25 M24.75 25 C15.86 23.36, 10.57 23.41, 6.25 25 M24.75 25 C20.14 24.39, 15.56 24.14, 6.25 25 M6.25 25 C3.75 25.82, 0.37 22.79, 0 18.75 M6.25 25 C3.51 23.74, -0.93 23.96, 0 18.75 M0 18.75 C0.57 15.95, -0.35 14.09, 0 6.25 M0 18.75 C-0.34 14.8, 0.38 11.57, 0 6.25 M0 6.25 C-1.17 1.68, 3.21 -1.67, 6.25 0 M0 6.25 C0.21 0.5, 1.56 -1.08, 6.25 0" stroke="#1e1e1e" stroke-width="2" fill="none"></path></g><g stroke-linecap="round"><g transform="translate(606.8362611966209 654.5) rotate(0 37 -0.5)"><path d="M-0.81 0.42 C11.53 0.28, 62.38 -1.33, 75.04 -1.46 M0.96 -0.4 C13.16 -0.33, 62.3 0.16, 74.64 -0.16" stroke="#1e1e1e" stroke-width="2" fill="none"></path></g><g transform="translate(606.8362611966209 654.5) rotate(0 37 -0.5)"><path d="M51.2 8.52 C60.87 7.11, 68.32 4.03, 74.64 -0.16 M51.2 8.52 C59.1 6.24, 68.19 1.49, 74.64 -0.16" stroke="#1e1e1e" stroke-width="2" fill="none"></path></g><g transform="translate(606.8362611966209 654.5) rotate(0 37 -0.5)"><path d="M51.11 -8.58 C60.72 -3.48, 68.22 -0.05, 74.64 -0.16 M51.11 -8.58 C58.9 -4.81, 68.02 -3.5, 74.64 -0.16" stroke="#1e1e1e" stroke-width="2" fill="none"></path></g></g><mask></mask><g stroke-linecap="round"><g transform="translate(605.1620640261099 470.55860074135467) rotate(0 37 -0.5)"><path d="M1.04 -0.46 C13.71 -0.59, 63.18 -0.4, 75.18 -0.35 M0.13 -1.75 C12.81 -2.26, 62.31 -2.08, 74.85 -2.13" stroke="#1e1e1e" stroke-width="2" fill="none"></path></g><g transform="translate(605.1620640261099 470.55860074135467) rotate(0 37 -0.5)"><path d="M51.36 6.43 C56.02 6.2, 63.33 0.58, 74.85 -2.13 M51.36 6.43 C60.43 2.32, 69.38 -0.4, 74.85 -2.13" stroke="#1e1e1e" stroke-width="2" fill="none"></path></g><g transform="translate(605.1620640261099 470.55860074135467) rotate(0 37 -0.5)"><path d="M51.35 -10.67 C56.07 -6.93, 63.38 -8.57, 74.85 -2.13 M51.35 -10.67 C60.34 -8.44, 69.3 -4.8, 74.85 -2.13" stroke="#1e1e1e" stroke-width="2" fill="none"></path></g></g><mask></mask><g stroke-linecap="round"><g transform="translate(251.16206402610987 465.55860074135467) rotate(0 37 -0.5)"><path d="M1.18 0.65 C13.17 0.7, 60.96 -0.06, 73 -0.14 M0.33 -0.05 C12.6 -0.29, 63.18 -1.56, 75.19 -1.82" stroke="#1e1e1e" stroke-width="2" fill="none"></path></g><g transform="translate(251.16206402610987 465.55860074135467) rotate(0 37 -0.5)"><path d="M51.9 7.28 C62.04 1.87, 71.39 -0.94, 75.19 -1.82 M51.9 7.28 C61.64 3.59, 69.93 0.62, 75.19 -1.82" stroke="#1e1e1e" stroke-width="2" fill="none"></path></g><g transform="translate(251.16206402610987 465.55860074135467) rotate(0 37 -0.5)"><path d="M51.5 -9.82 C61.73 -8.62, 71.23 -4.81, 75.19 -1.82 M51.5 -9.82 C61.46 -6.73, 69.9 -2.92, 75.19 -1.82" stroke="#1e1e1e" stroke-width="2" fill="none"></path></g></g><mask></mask><g stroke-linecap="round"><g transform="translate(248.23845362629731 651.5820191390261) rotate(0 37 -0.5)"><path d="M0.08 1.05 C12.42 0.84, 61.17 -1.37, 73.29 -1.86 M-1.34 0.56 C11.46 0.52, 62.89 -0.5, 75.64 -0.78" stroke="#1e1e1e" stroke-width="2" fill="none"></path></g><g transform="translate(248.23845362629731 651.5820191390261) rotate(0 37 -0.5)"><path d="M52.32 8.25 C59.61 4.93, 61.92 2.06, 75.64 -0.78 M52.32 8.25 C58.07 6.04, 63.05 3.77, 75.64 -0.78" stroke="#1e1e1e" stroke-width="2" fill="none"></path></g><g transform="translate(248.23845362629731 651.5820191390261) rotate(0 37 -0.5)"><path d="M51.97 -8.85 C59.26 -8.14, 61.66 -6.98, 75.64 -0.78 M51.97 -8.85 C57.83 -7.25, 62.89 -5.71, 75.64 -0.78" stroke="#1e1e1e" stroke-width="2" fill="none"></path></g></g><mask></mask><g stroke-linecap="round"><g transform="translate(139 559) rotate(0 56.5 -47)"><path d="M0.09 0.35 C12.86 -1.01, 61.49 5.11, 75.43 -8.2 C89.38 -21.5, 77.45 -65.21, 83.75 -79.48 C90.05 -93.75, 108.24 -91.57, 113.24 -93.8 M-1.32 -0.5 C11.44 -1.76, 60.6 6.22, 74.71 -7.29 C88.83 -20.79, 76.89 -67.34, 83.37 -81.55 C89.86 -95.77, 108.74 -90.26, 113.61 -92.59" stroke="#1e1e1e" stroke-width="2" fill="none"></path></g><g transform="translate(139 559) rotate(0 56.5 -47)"><path d="M98.68 -85.45 C102.16 -86.3, 103.01 -87.29, 113.61 -92.59 M98.68 -85.45 C104.29 -87.14, 109 -90.7, 113.61 -92.59" stroke="#1e1e1e" stroke-width="2" fill="none"></path></g><g transform="translate(139 559) rotate(0 56.5 -47)"><path d="M97.58 -96.72 C101.28 -95.31, 102.36 -94.05, 113.61 -92.59 M97.58 -96.72 C103.59 -94.54, 108.68 -94.24, 113.61 -92.59" stroke="#1e1e1e" stroke-width="2" fill="none"></path></g></g><mask></mask><g stroke-linecap="round"><g transform="translate(138 560) rotate(0 54.5 47)"><path d="M0.3 -0.77 C12.96 0.22, 61.39 -7.46, 76.68 6.27 C91.98 20.01, 86.76 67.11, 92.07 81.62 C97.38 96.12, 105.56 91.12, 108.55 93.32 M-1 1.44 C11.41 2.55, 60.18 -6.12, 75.57 7.43 C90.96 20.98, 85.84 68.29, 91.34 82.73 C96.84 97.17, 105.61 91.91, 108.56 94.06" stroke="#1e1e1e" stroke-width="2" fill="none"></path></g><g transform="translate(138 560) rotate(0 54.5 47)"><path d="M98.33 95.96 C101.35 94.97, 105.08 94.63, 108.56 94.06 M98.33 95.96 C101.53 95.86, 103.71 95.11, 108.56 94.06" stroke="#1e1e1e" stroke-width="2" fill="none"></path></g><g transform="translate(138 560) rotate(0 54.5 47)"><path d="M99.51 88.94 C102.12 90.49, 105.43 92.68, 108.56 94.06 M99.51 88.94 C102.36 90.72, 104.23 91.84, 108.56 94.06" stroke="#1e1e1e" stroke-width="2" fill="none"></path></g></g><mask></mask><g stroke-linecap="round"><g transform="translate(678 469) rotate(0 74.5 45.69401790065223)"><path d="M1.14 0.42 C6.85 1.74, 24.86 -5.51, 35.24 8.65 C45.63 22.8, 44.41 71.75, 63.44 85.35 C82.48 98.96, 135.28 89.16, 149.44 90.3 M0.28 -0.4 C6.29 1.03, 27.12 -4.45, 37.56 10 C48 24.46, 44.18 72.86, 62.91 86.33 C81.64 99.81, 135.35 89.72, 149.92 90.84" stroke="#1e1e1e" stroke-width="2" fill="none"></path></g><g transform="translate(678 469) rotate(0 74.5 45.69401790065223)"><path d="M126.88 100.55 C136.35 95.35, 143.89 93.63, 149.92 90.84 M126.88 100.55 C132.02 99.05, 138.45 95.78, 149.92 90.84" stroke="#1e1e1e" stroke-width="2" fill="none"></path></g><g transform="translate(678 469) rotate(0 74.5 45.69401790065223)"><path d="M126.03 83.47 C135.93 84.8, 143.79 89.62, 149.92 90.84 M126.03 83.47 C131.44 86.18, 138.08 87.11, 149.92 90.84" stroke="#1e1e1e" stroke-width="2" fill="none"></path></g></g><mask></mask><g stroke-linecap="round"><g transform="translate(682 653) rotate(0 72 -45.771394997528205)"><path d="M-0.39 -0.52 C6.66 -1.46, 32.81 8.33, 43.27 -5.84 C53.74 -20.01, 45.47 -71.09, 62.42 -85.52 C79.37 -99.96, 131.33 -91.35, 144.96 -92.46 M1.61 1.82 C8.43 0.6, 32.43 7.55, 42.47 -7.35 C52.52 -22.26, 44.67 -73.54, 61.88 -87.62 C79.08 -101.7, 132.22 -91.09, 145.71 -91.83" stroke="#1e1e1e" stroke-width="2" fill="none"></path></g><g transform="translate(682 653) rotate(0 72 -45.771394997528205)"><path d="M121.69 -84.9 C130.1 -87.04, 142.16 -89.47, 145.71 -91.83 M121.69 -84.9 C129.93 -87.58, 138.62 -89.07, 145.71 -91.83" stroke="#1e1e1e" stroke-width="2" fill="none"></path></g><g transform="translate(682 653) rotate(0 72 -45.771394997528205)"><path d="M122.86 -101.96 C130.78 -97.52, 142.4 -93.37, 145.71 -91.83 M122.86 -101.96 C130.84 -98.86, 139.13 -94.55, 145.71 -91.83" stroke="#1e1e1e" stroke-width="2" fill="none"></path></g></g><mask></mask><g transform="translate(76.65999794006348 547.5) rotate(0 28.340002059936523 12.5)"><text x="0" y="17.52" font-family="Virgil, Segoe UI Emoji" font-size="20px" fill="#e03131" text-anchor="start" style="white-space: pre;" direction="ltr" dominant-baseline="alphabetic">"Hello"</text></g><g transform="translate(265.6599979400635 422.5) rotate(0 28.340002059936523 12.5)"><text x="0" y="17.52" font-family="Virgil, Segoe UI Emoji" font-size="20px" fill="#e03131" text-anchor="start" style="white-space: pre;" direction="ltr" dominant-baseline="alphabetic">"Hello"</text></g><g transform="translate(258.6599979400635 678.5) rotate(0 28.340002059936523 12.5)"><text x="0" y="17.52" font-family="Virgil, Segoe UI Emoji" font-size="20px" fill="#e03131" text-anchor="start" style="white-space: pre;" direction="ltr" dominant-baseline="alphabetic">"Hello"</text></g><g transform="translate(606.6599979400635 421.5) rotate(0 28.340002059936523 12.5)"><text x="0" y="17.52" font-family="Virgil, Segoe UI Emoji" font-size="20px" fill="#e03131" text-anchor="start" style="white-space: pre;" direction="ltr" dominant-baseline="alphabetic">"Hello"</text></g><g transform="translate(612.6599979400635 678.5) rotate(0 28.340002059936523 12.5)"><text x="0" y="17.52" font-family="Virgil, Segoe UI Emoji" font-size="20px" fill="#e03131" text-anchor="start" style="white-space: pre;" direction="ltr" dominant-baseline="alphabetic">"Hello"</text></g><g transform="translate(839.6599979400635 526.5) rotate(0 28.340002059936523 12.5)"><text x="0" y="17.52" font-family="Virgil, Segoe UI Emoji" font-size="20px" fill="#e03131" text-anchor="start" style="white-space: pre;" direction="ltr" dominant-baseline="alphabetic">"Hello"</text></g><g transform="translate(844.6599979400635 562.5) rotate(0 28.340002059936523 12.5)"><text x="0" y="17.52" font-family="Virgil, Segoe UI Emoji" font-size="20px" fill="#e03131" text-anchor="start" style="white-space: pre;" direction="ltr" dominant-baseline="alphabetic">"Hello"</text></g><g transform="translate(355 10) rotate(0 69.95799255371094 17.5)"><text x="0" y="24.528" font-family="Virgil, Segoe UI Emoji" font-size="28px" fill="#1e1e1e" text-anchor="start" style="white-space: pre;" direction="ltr" dominant-baseline="alphabetic">Sequential</text></g><g transform="translate(365.04200744628906 333.5) rotate(0 52.65399932861328 17.5)"><text x="0" y="24.528" font-family="Virgil, Segoe UI Emoji" font-size="28px" fill="#1e1e1e" text-anchor="start" style="white-space: pre;" direction="ltr" dominant-baseline="alphabetic">Parallel</text></g></svg>